<svg version="1.2" xmlns="http://www.w3.org/2000/svg" viewBox="0 0 200 74" width="200" height="74"><defs><linearGradient id="P" gradientUnits="userSpaceOnUse"/><linearGradient id="g1" x2="1" href="#P" gradientTransform="matrix(-7.413,-13.814,4.059,-2.178,9.848,40.348)"><stop stop-color="#0070b6"/><stop offset="1" stop-color="#1d2c5e"/></linearGradient><linearGradient id="g2" x2="1" href="#P" gradientTransform="matrix(9.409,-10.082,1.182,1.103,100.357,12.126)"><stop stop-color="#0070b6"/><stop offset="1" stop-color="#1d2c5e"/></linearGradient><linearGradient id="g3" x2="1" href="#P" gradientTransform="matrix(-1.122,-9.426,3.719,-0.443,59.26,28.934)"><stop stop-color="#0070b6"/><stop offset="1" stop-color="#1d2c5e"/></linearGradient><linearGradient id="g4" x2="1" href="#P" gradientTransform="matrix(-0.448,-8.509,3.494,-0.184,162.145,27.12)"><stop stop-color="#125d9e"/><stop offset="1" stop-color="#1d2c5e"/></linearGradient><linearGradient id="g5" x2="1" href="#P" gradientTransform="matrix(-9.884,15.724,-6.831,-4.294,130.712,14.848)"><stop stop-color="#125d9e"/><stop offset="1" stop-color="#1d2c5e"/></linearGradient><linearGradient id="g6" x2="1" href="#P" gradientTransform="matrix(6.733,13.241,-11.805,6.003,43.24,40.051)"><stop stop-color="#105fa1"/><stop offset="1" stop-color="#1d2c5e"/></linearGradient><linearGradient id="g7" x2="1" href="#P" gradientTransform="matrix(7.792,18.063,-10.235,4.415,17.812,35.532)"><stop stop-color="#105fa1"/><stop offset="1" stop-color="#1d2c5e"/></linearGradient><linearGradient id="g8" x2="1" href="#P" gradientTransform="matrix(11.799,0,0,10.972,52.041,42.242)"><stop stop-color="#3c5aa6"/><stop offset=".93" stop-color="#2b73b9"/><stop offset="1" stop-color="#2a75bb"/></linearGradient><linearGradient id="g9" x2="1" href="#P" gradientTransform="matrix(196.847,0,0,70.829,2.76,36.175)"><stop stop-color="#3c5aa6"/><stop offset=".93" stop-color="#2b73b9"/><stop offset="1" stop-color="#2a75bb"/></linearGradient></defs><style>.a{fill:url(#g1)}.b{fill:#0071b9}.c{fill:url(#g2)}.d{fill:#1d2c5e}.e{fill:url(#g3)}.f{fill:url(#g4)}.g{fill:#312370}.h{fill:#21386e}.i{fill:url(#g5)}.j{fill:url(#g6)}.k{fill:url(#g7)}.l{fill:#ffcb05}.m{fill:#7d7f68}.n{fill:#c7a008}.o{fill:#3c5aa6}.p{fill:#3567b0}.q{fill:#1e2d5f}.r{fill:#3466af}.s{fill:url(#g8)}.t{fill:url(#g9)}</style><path class="a" d="m0 27.8l8.9 15 3.5-3.4-9.7-14.4z"/><path class="b" d="m132.3 16l-0.4 2 4.2-1.4-0.5-2.5z"/><path class="c" d="m107.4 2.4l-13.7 15.7 4-1.1 13-16.3z"/><path class="d" d="m180.8 23.9l3.3-1.8-0.9 8.5z"/><path class="d" d="m159.9 29.3l3 0.7 3.8-1.9-3.4-1.2z"/><path class="e" d="m56.7 20.4l0.5 9.7 4.2-1.6-1.3-9.9z"/><path class="f" d="m163.1 17.5l-3.3 1.8 0.1 10 3.4-1.7 1-4.9z"/><path class="g" d="m162.7 30l-3.7 32.8 5.9-1.2 1.1-33.4z"/><path class="h" d="m169.9 64.4l0.1 4.4 11.3 3.6 3.4-1.7-11.1-8.7-11.3-1-3.3 1.8z"/><path class="h" d="m127.8 56.5l2.7-1.4 1.9 3.2 2.6-1.4 0.5 4.3 16.5 3 3.3-1.9-22.8-13.8-16.1 2.7-3.1 3z"/><path class="i" d="m122.5 16.1l-3.3 1.9-5.9 36.2 3.3-1.7 5.7-20.4z"/><path class="d" d="m96.1 21l-2.6 1.4 0.2 0.9 6.3-4-2.7-2.9-3.6 1.7z"/><path class="h" d="m103.3 63.9l-26.9-13.4 3.4-2.5 26.9 14z"/><path class="d" d="m79 14.3l-4.1 7.7 4.3-1.3 3.1-8.3z"/><path class="j" d="m41.9 46.2l-3.4 2.3c0 0 0.8 3.9 1.7 6.6 1 2.6 3.2 4.8 3.2 4.8 1.5 1.4 3.2 2.4 5.2 3 3.8 1.1 8.1 0.4 11.8-2 0.9-0.6 2.3-1.6 3.1-2.4-3.6 2.3-21.6-12.3-21.6-12.3z"/><path class="d" d="m60.4 29.4l3.1 34.5 12.9-1.8 3.4-1.8-15.9-33-3.3 1.1-3.4 1.7z"/><path class="k" d="m12.2 41.4l14.4 32.5 13.6-4.4 3.4-2.2-28.3-29.6-3.6 2.1-2.8 3z"/><path class="d" d="m154.4 56.7l0.2 1.6c1.2-0.1 2.4-0.3 3.5-0.7 1.2-0.4 3.9-1.6 4.9-2.5-0.5 0.2-6.7 1.8-8.6 1.6z"/><path class="d" d="m106.1 48.4l0.6 2.6c2.7-0.5 5.1-1.4 7.4-2.8 1.5-0.9 3.1-2.2 3.6-2.5-0.4 0.2-11.6 2.7-11.6 2.7z"/><path class="l" d="m30.3 70.8l-1-2.4-13.6-30.4-0.3-0.5-0.6 0.3-0.5 0.2-2.4 1.2c-0.4-0.6-1-1.7-1.3-2.3l-5.5-9.3-1.4-2.4 2.3-1.5c2.3-1.4 4.8-2.7 7.6-3.9 5.5-2.3 11-3.6 16.1-3.6 1.7 0 3.4 0.2 4.9 0.4 2.5 0.3 4.8 1.1 6.8 2.4 2.9 1.7 5.2 4.2 6.4 7.1 1.1 2.5 1.3 5.4 0.6 8.3l-0.4 1.8 1.5-1q1.5-1.1 3.1-1.8c2-0.8 4-1.3 6-1.3q2.8 0 5.3 1.1l1 0.5v-1.2l-0.5-5-0.1-0.8-0.7 0.2-2.3 0.6-0.4-8.4 16.9-5.4-0.1 6.6 1.2 0.3 3.7-7 11.1 9.7 0.4 0.5 0.5-0.5c1.4-1.4 3.3-2.6 5.3-3.4l0.8-0.4-0.6-0.7-2-2.4 12.7-14.6 6.6 9.9-10.1 5.5-2.2 1.2h2.6c4.8 0.1 9.1 2.2 12 5.7l1 1.4 0.7 0.8-1.1 1.2-0.8 0.8-2.5 2.7-0.4 0.5 0.5 0.5 2.3 2.1 0.9 0.8 0.3-1.1 0.8-5.7 0.3-1.4 0.2-1.5 1.3-8.4h12.6l0.1-0.6 0.2-1.4h11l2.6 16.7 0.2 1.1 0.9-0.6c1.1-0.8 2.3-1.4 3.5-1.9 1.7-0.7 3.4-1 5.2-1 2.1 0 4.1 0.4 5.8 1.4 0.1 0 0.1 0.1 0.2 0.1l0.8 0.3 0.1-0.8 0.2-1.9 0.1-0.6-0.6-0.1-2.2-0.6-0.1-8.7 17 3.7 1.2 6.3h1.4l1.3-5.4 14.2 3.4-14.6 43.6-10.3-3.3v-4-0.6h-0.6l-10.3-1.5 0.6-5.3 0.1-1.2-1.1 0.6q-0.8 0.4-1.6 0.6c-1.7 0.7-3.4 1-5.1 1-0.5 0-0.9 0-1.4-0.1h-0.9l0.1 0.8 0.8 4.6-15.1-2.6-0.8-6.8-0.2-2.3-1.1 2-1.7 3.3-3.1-5.9-1-1.7-0.3 2-0.7 4.5-13.2-2.1 1.1-6.2 0.2-1.4-1.3 0.7c-2.1 1.3-4.6 2.3-7.5 3-1 0.2-2.1 0.4-3.2 0.5l-0.6 0.1v12.4l-25.9-12.8-1-0.4v12l-11.6 1.7-0.5-5.2-0.2-1.4-1 0.9c-1.6 1.5-3.3 2.7-5.1 3.5-1.9 0.8-3.9 1.3-5.9 1.3-2 0-3.8-0.5-5.5-1.2-3.1-1.5-5.4-4.2-6.4-7.7-0.4-1.6-0.6-3.3-0.4-5.1l0.3-1.9-1.4 1.4c-0.9 0.9-2 1.7-3.1 2.6l-0.4 0.3 0.2 0.4 3.9 14.9 0.7 2.7-2.6 0.8-7.3 2.4zm3.2-40.2c-0.4 0-0.7 0-1.2 0.1l-0.5 0.1-0.7 0.1 0.2 0.7 0.1 0.5 2.1 6.9 0.2 0.6 0.3 1 0.8-0.7 0.5-0.4c2.1-1.9 2.7-3.7 2.3-6.1-0.3-1.4-1.3-2.1-2-2.3-0.5-0.3-1.3-0.5-2.1-0.5zm56.5 0.2l-1.4 1.3-3.5 3.3-0.7 0.8 1 0.3 3.7 1.4 1.1 0.5-0.2-1.2c-0.3-1.6-0.4-3.1-0.3-4.6zm15.1-3.8c-1.4 0-2.8 0.5-3.7 1.7-1.5 1.6-1.8 4-0.8 6l0.3 0.5 0.5 0.8 0.6-0.8 0.5-0.4 5.1-5.8 0.4-0.4 0.6-0.8-0.9-0.3-0.6-0.2c-0.7-0.2-1.3-0.3-2-0.3z"/><path class="m" d="m112.9 35.5l-0.2 0.2c0.1 0 0.2-0.1 0.2-0.2z"/><path class="m" d="m117.3 31.5l2.6-2.7-0.9 0.9v-0.1l-0.8 0.8-2.5 2.7 2.4 2.1 0.4-2.6 1.2 1z"/><path class="m" d="m117.3 31.5l2.4 2.1 0.9-5.6-0.7 0.8z"/><path class="m" d=""/><path class="n" d="m99.8 38.3c0.2 0.2 0 0 0.2 0.2l1.6-1.1c-0.3-0.2-0.5-0.4-0.7-0.5-2.2-2.1-1.6-6.7-0.2-9.2-3.9 3.1-3.7 7.8-0.9 10.6z"/><path class="n" d="m118.5 40.8c-2.6 2.2-5.5 3.5-9.3 4.5-0.8 0.2-1.7 0.4-2.5 0.4-6.1 0.6-11.2-2.3-13.1-6.8-0.3-0.5-0.5-1.1-0.6-1.7-0.9-3.8-0.2-7.2 1.7-10 0.3-0.3 0.4-0.5 0.6-0.7 0 0.1-0.2 0.1-0.3 0.2-0.7 0.7-1.4 1.3-1.9 2.2-1.9 2.6-2.7 6.1-1.8 10 0.2 0.5 0.3 1.1 0.6 1.7 2 4.5 7.1 7.4 13.2 6.8 0.8-0.1 1.6-0.3 2.5-0.5 3.9-0.9 6.8-2.3 9.4-4.4 0.6-0.5 1.2-1.1 1.8-1.7l-0.1-0.1c-0.1 0.1-0.2 0.1-0.2 0.1z"/><path class="n" d="m75.3 29.2l6.8-9.6-0.2-0.2-6.6 9.2z"/><path class="n" d="m120.6 28l-0.9 5.6-1.2-1-0.4 2.6-2.4-2.1 2.5-2.7 0.8-0.8v0.1l0.9-0.9z"/><path class="n" d="m112.1 12.1l2.4-1-4.4-5.6-1.4 2z"/><path class="n" d="m45.8 26c-11.1-13.4-31.1-6.2-38.2 0.1l0.3 0.5c1.7-0.9 3.4-1.7 5.2-2.5 7.1-3.1 13.9-4 19.3-3 2 0.2 4 0.8 5.7 2 2.5 1.4 4.3 3.3 5.5 5.8 1.9 4.5 0.2 10.4-4.3 15.3 5.7-5.3 9.6-10.3 6.5-18.2z"/><path class="n" d="m68.4 41.7c-0.1-0.2-0.1-0.5-0.2-0.7-0.6-2.2-1.9-4-3.7-5.2-2.8-1.9-6.8-2.3-10.7-0.7-2.1 0.9-3.9 2.3-5.4 4 1.2-1 2.4-1.7 3.7-2.3 4-1.7 8-1.3 10.8 0.6 1.8 1.2 3.1 3 3.7 5.2 0.1 0.2 0.1 0.5 0.1 0.8 0.2 0.9 0.3 1.7 0.3 2.6-0.1 2.5-1.1 5.1-2.6 7.4-0.3 0.3-0.5 0.6-0.8 1 0.8-0.8 1.7-1.6 2.3-2.6 1.7-2.2 2.5-4.8 2.7-7.4q0-1.3-0.2-2.7z"/><path class="n" d="m57.5 38.5c0 0 1.6-1.6 1.5-1.6-2-0.1-2.9 1.8-2.9 2 0.4-0.3 0.9-0.3 1.4-0.4z"/><path class="n" d="m61.3 40.8c0 0.3 0.1 0.5 0.1 0.8 0 0.4-0.1 0.8-0.3 1.2 0.3-0.2 2.7-1.4 1.8-3.7 0.1 0.1-1.7 1.7-1.6 1.7z"/><path class="n" d="m52.1 42.2c0-1 1.7-3.4 2.2-4.2-2.7 1.7-3.9 4-3.9 5.7 0 3.1 2.8 5.7 6 5.7 1.6 0 4.4-0.9 6.3-3.8-1 0.6-3.4 2.1-4.8 2.1-3.2 0-5.8-2.4-5.8-5.5z"/><path class="n" d="m75 45v12.5l2 0.1-0.4-14.2z"/><path class="n" d="m63.6 21.1v1.1l9.4-2.8 0.7 12 1.6-2.2-0.3-12z"/><path class="n" d="m92.1 25.4l-8.8-8.2-1.2 2.4 7.9 7.3z"/><path class="n" d="m90.7 40.6l-10.4-3.5-1.5 1.6 10.4 4.1c1.2 2.3 2.9 4.2 5.2 5.5 2.1 1.4 4.6 2.2 7.2 2.4v5.1l1.7 0.8 0.5-7.7z"/><path class="n" d="m107.5 39.1c2.6-0.5 4-1.9 5.3-3.4-0.9 0.9-5.7 1.9-6.5 2.1l-1.6 1.7c0.7 0 1.9-0.1 2.8-0.4z"/><path class="n" d="m102.8 21.4c-4.7 0.6-7.2 4.6-7.5 5 1.7-1.5 3.9-2.6 6.3-3.1 5.9-1.4 11 0.4 14.2 4.3l2-1.6c-3.2-3.9-9.1-6-15-4.6z"/><path class="n" d="m118.7 40.7c0.6-0.4 1.5-1 2.1-1.6l-6.3-5.6c-0.5 0.6-0.9 1.6-1.5 2z"/><path class="n" d="m151 55.8c-6.6-5.5-6.2-17.1-2.9-20.8l-2.9-18.3-6.4 0.8-0.3 1.7h4.8l2.6 16.5c-3.2 3.7-4.8 8.7-3.8 13.3 0.9 3.5 3.1 6.4 6.2 8 0.3 0.1 0.7 0.3 1 0.4v0.2l2 0.3c-0.1 0.1 0.1-2-0.3-2.1z"/><path class="n" d="m125.6 19.4l-0.3 1.6h7.3l2.1 11.8 1.7-1.6-1.7-12.5z"/><path class="n" d="m138.1 42.2l-2.4 6 0.6 1.7 3.3-9.3z"/><path class="n" d="m131.1 38.4l-1.6 1.6-1.8 11 1.7 0.6z"/><path class="n" d="m163.8 34.9c0.9 0.6 1.8 1.5 2.3 2.5 0.6 0.9 0.9 1.7 1.2 2.7 0.8 3.3-0.2 6.9-2.3 9.7-0.2 0.3-0.4 0.6-0.6 0.8 0.8-0.7 11.2-8.3 1.1-18.3-11.1-3.7-15.4 3.5-15.7 4 1.2-0.9 2.5-1.8 4-2.3 3.7-1.5 7.4-1 10 0.9z"/><path class="n" d="m158.2 35.6c0 0.1 1.7-1.6 1.7-1.6-2 0-3 1-2.9 1.4-0.1 0.2-0.2 0.4-0.3 0.6 0.4-0.3 1.2-0.4 1.5-0.4z"/><path class="n" d="m161.9 38.1c0.1 0.3 0.1 0.5 0.1 0.8 0 0.4-0.1 0.8-0.3 1.1 0.3-0.2 2.7-0.9 1.8-3.6 0.1 0.2-1.6 1.7-1.6 1.7z"/><path class="n" d="m156.7 46.5c2.2 0 4.7-1.3 6.5-3.7-4.5 0.9-9.3-6.7-8.9-7.4-1.7 1.2-3.3 3.6-3.3 5.3-0.2 3.1 2.4 5.6 5.7 5.8z"/><path class="n" d="m181.6 66.2l1.1 0.7 13-39.1-9.8-2.2v2.3l7.8 1.7z"/><path class="n" d="m166.1 21.4l0.1 2.2 10.4 2.1 4 18.9 1.6-1.6-3.8-19.2z"/><path class="n" d="m174.1 43l-2.8 16.1 1.6 0.5 2.9-18.2z"/><path class="n" d="m39.6 65l-4.9-17.6-1.7 1.3 4.5 16.8z"/><path class="n" d="m38.3 38.6c-1.1 1.2-3.6 3.5-5 4.4l-0.9-2.7-1.9-6.1-1.2-4.1-1.2 1.5 1.2 4.1 1.9 6 0.9 2.7c2-1.1 4.8-3.5 6.2-5.8z"/><path class="m" d="m107 28.2c-1.5-0.6-3.7-0.4-4.9 0.9-0.2 0.3-0.8 1-0.9 1.4 1.1-0.9 3.2-1.1 4.4-0.6z"/><path class="m" d="m37 33.7c-0.2-0.9-1.1-1.7-1.5-1.9-0.8-0.4-2.2-0.4-3.1-0.2 0.1 0.6 0.3 1.3 0.4 1.6 0.4 0.1 1.1 0.2 1.4 0.3 0.5 0.2 1.2 0.7 1.4 1.7 0.2 1.1 0.1 2.3-0.4 3.2 1.4-1.3 2.1-2.8 1.8-4.7z"/><path class="o" d="m39.4 33.6c-0.7-3.5-5.4-5.5-10-3l1.2 4 1.8 6.1 0.9 2.7c3.5-2.1 7-4.8 6.1-9.8zm-4.6 5.6c-0.5-1.7-1.7-5.2-1.7-5.2 0 0-0.2-0.8-0.5-1.7 1-0.1 2 0 2.7 0.3 0.4 0.3 1.2 0.7 1.3 1.7 0.5 1.9-0.2 3.4-1.8 4.9z"/><path class="p" d="m109.4 28c-2.5-2.4-6.5-2.2-8.9 0.4-2.4 2.5-2.2 6.5 0.4 8.9 0.2 0.2 0.4 0.4 0.6 0.5l8.4-9.4c-0.2-0.1-0.3-0.3-0.5-0.4zm-7.8 6.6c-0.8-1.4-0.7-3.4 0.6-4.7 1.2-1.3 2.9-1.6 4.5-1z"/><path class="q" d="m120.6 26.9l-4.6 4.5 4.4 3.9z"/><path class="r" d="m163.5 36.5c0.1 0.3 0.1 0.6 0.1 0.9-0.1 1.7-1.7 3.1-3.7 3-2-0.1-3.6-1.5-3.5-3.3 0-1.7 1.5-3 3.3-3.1-0.4 0-0.7-0.1-1.1-0.1-3.3-0.2-6 2.2-6.2 5.1-0.1 3.1 2.4 5.7 5.7 5.8 3.3 0.1 6-2.3 6.1-5.4 0.2-1-0.1-2-0.7-2.9z"/><path class="s" d="m63 40c0 1.8-1.6 3.2-3.5 3.2-2 0-3.6-1.4-3.6-3.2 0-1.6 1.4-3 3.3-3.1-0.4-0.1-0.8-0.1-1.1-0.1-3.4 0-6 2.4-6 5.4 0 3.1 2.6 5.5 5.9 5.5 3.3 0 5.9-2.4 5.9-5.5 0-1.1-0.3-2.1-0.9-3 0 0.2 0 0.5 0 0.8z"/><path class="t" d="m184.1 22.1l-1.5 6.1-1.3-6.7-18.2-4 0.1 10.1 2.8 0.6-0.3 1.9c0 0 0 0 0-0.1-3.4-1.8-7.7-2-11.6-0.5-1.3 0.6-2.6 1.2-3.7 2l-2.7-17.3h-12.1l-0.3 2h-12.7l-1.5 8.9-1.1-1.3c-3.1-3.8-7.5-5.9-12.5-6l10.8-5.8-7.5-11.2-13.7 15.6 2.4 2.9q-3.2 1.4-5.5 3.6l-11.7-10.4-4.1 7.8 0.1-7.6-18.3 5.9 0.6 9.8 3.1-0.9 0.4 5c-3.5-1.6-7.8-1.6-11.8 0.1-1.2 0.6-2.3 1.2-3.2 1.9 0.6-3 0.5-6-0.7-8.7-1.3-3.1-3.8-5.7-6.7-7.4-2-1.4-4.5-2.2-7.1-2.5-6.3-1.1-13.9 0-21.4 3.2-2.7 1.2-5.3 2.5-7.6 4l-2.9 1.8 1.8 3 5.5 9.3 1.7 2.8 2.9-1.4 0.5-0.3 13.6 30.4 1.3 2.9 3.1-1 7.3-2.4 3.3-1-0.8-3.3-4-14.9q1.7-1.2 3.1-2.7c-0.2 1.8 0 3.7 0.4 5.4 1 3.6 3.4 6.5 6.7 8 3.6 1.7 8 1.7 12 0 2-0.9 3.8-2 5.3-3.6l0.5 6 12.9-1.9v-11.6l26.9 13.3v-12.8c1.1 0 2.2-0.2 3.3-0.5 2.9-0.7 5.4-1.7 7.7-3l-1.1 6.9 14.5 2.3 0.9-5.3 3.7 7 2.3-4.4 0.9 7.3 16.4 2.9-0.9-5.5c2.2 0.2 4.6-0.1 6.9-0.9 0.5-0.2 1.1-0.5 1.6-0.8l-0.7 6 10.9 1.5 0.1 4.5 11.4 3.6 14.9-44.8zm-64.3 6.7l0.8-0.8-0.9 5.6-2.4-2.2zm-9.6-23.1l4 5.4-11.4 5.7-0.8-1.2c0 0.1 8.2-9.9 8.2-9.9zm-75.5 41.8l4.5 17.4-7.3 2.4-15.1-33.7c-0.8 0.4-2.4 1.2-3.7 1.8l-5.5-9.2c2.1-1.4 4.6-2.6 7.1-3.7 7.1-3.1 13.9-4 19.3-3 2 0.2 4 0.8 5.7 2 2.5 1.4 4.3 3.3 5.4 5.9 2.7 6-1.7 14.8-10.4 20.1zm33.8-3.1c0 2.6-1 5.2-2.6 7.4-1.6 2.1-3.7 3.8-6.2 4.9-6.3 2.8-12.7 0-14.4-6-1.6-5.9 2.2-12.8 8.4-15.5 3.9-1.7 7.9-1.3 10.7 0.7 1.8 1.1 3.1 2.9 3.7 5.1 0.1 0.3 0.1 0.6 0.1 0.8 0.3 0.9 0.3 1.8 0.3 2.6zm34.8 12.3l-26.8-13.3 0.1 14-6.9 1-0.5-5.8c2.2-3.6 2.9-8 1.8-11.9-0.6-2.2-1.7-4.1-3.3-5.6l-0.9-11.7-3.1 0.8-0.2-3 11.1-3.3 0.7 11.4 8.1-11.5 8.1 7.6-11.2 11.8 10.5 4.1c1.2 2.3 3 4.1 5.2 5.5 2.2 1.3 4.7 2.2 7.3 2.4zm-13.9-19.4l-3.7-1.4 3.5-3.3c-0.2 1.5-0.1 3.1 0.2 4.7zm29.1 3.5c-2.6 2.2-5.5 3.5-9.4 4.5-0.8 0.2-1.7 0.4-2.4 0.4-6.2 0.6-11.3-2.3-13.2-6.8-0.2-0.5-0.4-1.1-0.6-1.7-0.9-3.8-0.1-7.2 1.8-10 0.5-0.8 1.2-1.4 1.9-2.1 1.8-1.6 4.1-2.8 6.7-3.4 5.8-1.4 10.9 0.4 14.1 4.2l-11.1 11.8c0.8 0.2 1.9 0 2.8-0.3 2.7-0.6 4.2-2 5.4-3.5l4.5 4 1.3 1.2c-0.6 0.6-1.2 1.2-1.8 1.7zm23.6 15.8l-2.4-16-3.5 8.8-5.1-11-2 12.8-8.6-1.5 1.2-7.1c0.3-0.3 0.7-0.6 1-0.9l2.7-2.8-2.6-2.5 2.9-17h8.5l2.2 11.8 2.4-13.7h6.2l2.6 16.6c-3.3 3.7-4.8 8.7-3.8 13.3 0.8 3.5 3 6.3 6.2 8 0.2 0.2 0.6 0.3 0.9 0.5l0.3 2.1zm21.3-5.2c-1 0.6-2 1.2-3.1 1.6-2.3 0.8-4.4 1-6.4 0.6-1.3-0.3-2.6-0.8-3.7-1.6-1.7-1.2-3-3-3.6-5.3-0.6-2.7 0-5.7 1.4-8.3 0.8-1.2 1.7-2.4 2.9-3.5 1.2-1.1 2.7-2 4.2-2.6 3.8-1.4 7.5-0.9 10.1 0.9 1 0.7 1.8 1.6 2.4 2.6 0.4 0.8 0.8 1.7 1 2.7 0.8 3.3-0.1 6.9-2.2 9.7-0.7 1.2-1.8 2.3-3 3.2zm19.2 15.1l-6.3-1.9-0.5-23.2-3.2 17.9-6.9-1.1 0.6-5.2c4.5-3.8 6.8-9.8 5.5-15.3-0.6-2.3-1.8-4.5-3.5-6l0.6-6.1-2.6-0.7v-3.2l11.9 2.4 4 18.8 4.1-16.9 9 2z"/><path  d="m191.6 61.4c1.4 0 2.5 1.1 2.5 2.5 0 1.4-1.1 2.6-2.5 2.6-1.5 0-2.6-1.2-2.6-2.6 0.1-1.4 1.2-2.5 2.6-2.5zm0 0.4c-1.1 0-2 1-2 2.1 0 1.2 0.9 2.2 2.1 2.2 1.1 0 2-1 2-2.2-0.1-1.1-1-2.1-2.1-2.1zm-0.5 3.6h-0.4v-2.8c0.2-0.1 0.4-0.1 0.8-0.1q0.6 0 0.9 0.3c0.1 0.1 0.3 0.2 0.3 0.5 0 0.4-0.3 0.6-0.6 0.7 0.3 0.1 0.5 0.3 0.5 0.7 0.1 0.4 0.1 0.6 0.1 0.6h-0.4c-0.1 0-0.2-0.3-0.2-0.7-0.1-0.4-0.2-0.5-0.6-0.5h-0.4zm0-1.6h0.3c0.4 0 0.7-0.1 0.7-0.5 0-0.2-0.2-0.5-0.7-0.5h-0.3z"/></svg>